<svg width="50" height="50" viewBox="0 0 50 50" fill="none" xmlns="http://www.w3.org/2000/svg">
<rect x="9.5" y="13.5" width="31" height="25" rx="1.5" fill="#B9CBDE" stroke="#0073C2"/>
<line x1="9" y1="20.5" x2="41" y2="20.5" stroke="#0073C2"/>
<circle cx="14" cy="17" r="1.5" stroke="#0073C2"/>
<circle cx="19" cy="17" r="1.5" stroke="#0073C2"/>
<circle cx="24" cy="17" r="1.5" stroke="#0073C2"/>
<path d="M34.5 13.5H39C39.8284 13.5 40.5 14.1716 40.5 15V20.5H34.5V13.5Z" stroke="#0073C2"/>
<circle cx="37.5" cy="16.5" r="0.5" fill="#EDAD63"/>
<path d="M31 24.5H37" stroke="#28AFF0" stroke-linecap="round"/>
<line x1="23.5" y1="30.5" x2="36.5" y2="30.5" stroke="#28AFF0" stroke-linecap="round"/>
<line x1="23.5" y1="27.5" x2="36.5" y2="27.5" stroke="#28AFF0" stroke-linecap="round"/>
<line x1="23.5" y1="33.5" x2="36.5" y2="33.5" stroke="#28AFF0" stroke-linecap="round"/>
<g clip-path="url(#clip0_162_951)">
<path fill-rule="evenodd" clip-rule="evenodd" d="M12.9123 24.762C10.9664 26.7078 10.9731 29.8695 12.9268 31.8232C13.2828 32.1792 14.1763 32.9092 14.899 32.9758L14.9012 33.961C14.9023 34.541 14.7389 34.5477 14.4696 34.5583C14.3571 34.5634 14.2266 34.5684 14.0811 34.6166C14.0811 34.6166 13.0964 34.7783 12.9341 35.7636C12.8535 36.3379 13.0863 37.4877 14.6616 37.4911L14.6627 37.8191C14.6627 37.8191 13.5958 37.8998 13.4329 38.8844C13.3523 39.4588 13.6831 40.4446 14.8323 40.4474L14.8346 41.5961C14.8363 42.3848 15.5483 42.6378 15.9038 42.6653L16.8896 42.6681C17.8093 42.6697 18.0377 41.9039 18.0372 41.5205L18.0192 32.9825C18.0192 32.9825 19.0856 32.739 19.9869 31.8378C21.9328 29.8919 21.926 26.7302 19.9724 24.7765C18.0187 22.8228 14.8575 22.8167 12.9123 24.762Z" fill="#0073C2"/>
<path d="M15.2152 27.0661C14.8895 27.3933 14.707 27.8366 14.7079 28.2984C14.7089 28.7602 14.8932 29.2027 15.2203 29.5286C15.5462 29.8557 15.9887 30.04 16.4505 30.041C16.9123 30.0419 17.3555 29.8594 17.6828 29.5336C17.8442 29.3716 17.9722 29.1794 18.0593 28.9679C18.1465 28.7564 18.1911 28.5299 18.1907 28.3012C18.1903 28.0724 18.1448 27.846 18.0569 27.6349C17.969 27.4237 17.8404 27.232 17.6783 27.0705C17.5169 26.9085 17.3251 26.7799 17.114 26.692C16.9028 26.6041 16.6764 26.5586 16.4477 26.5582C16.219 26.5578 15.9924 26.6024 15.781 26.6895C15.5695 26.7767 15.3773 26.9046 15.2152 27.0661Z" fill="#B9CBDE"/>
</g>
<defs>
<clipPath id="clip0_162_951">
<rect width="19" height="19" fill="white" transform="matrix(-0.707107 -0.707107 -0.707107 0.707107 29.8701 32.4351)"/>
</clipPath>
</defs>
</svg>
