<svg width="50" height="50" viewBox="0 0 50 50" fill="none" xmlns="http://www.w3.org/2000/svg">
<g clip-path="url(#clip0_160_871)">
<path d="M17.4185 15.9325L24.2631 26.6233C24.3422 26.7469 24.4512 26.8486 24.58 26.9191C24.7088 26.9896 24.8532 27.0265 25 27.0265C25.1468 27.0265 25.2912 26.9896 25.42 26.9191C25.5488 26.8486 25.6578 26.7469 25.7369 26.6233L32.5817 15.9324C33.7683 14.3226 34.406 12.374 34.4008 10.3742C34.4008 5.19064 30.1837 0.973415 25 0.973415C19.8163 0.973415 15.5992 5.19053 15.5992 10.3742C15.5939 12.3741 16.2318 14.3227 17.4185 15.9325ZM25 2.72342C29.2186 2.72342 32.6508 6.15549 32.6508 10.3742C32.6552 12.0097 32.1312 13.6029 31.1567 14.9164C31.145 14.9322 31.134 14.9483 31.1234 14.9648L25 24.5287L18.8768 14.9647C18.8663 14.9482 18.8552 14.9321 18.8436 14.9164C17.8689 13.6029 17.3448 12.0097 17.3492 10.3742C17.3492 6.15555 20.7814 2.72342 25 2.72342Z" fill="#14A647"/>
<path d="M22.2898 7.54545V17H21.1449V7.54545H22.2898ZM24.5853 17V7.54545H27.7799C28.5216 7.54545 29.1279 7.67933 29.5988 7.94709C30.0728 8.21177 30.4236 8.57031 30.6514 9.02273C30.8791 9.47514 30.993 9.97988 30.993 10.5369C30.993 11.094 30.8791 11.6003 30.6514 12.0558C30.4267 12.5112 30.0789 12.8744 29.608 13.1452C29.1372 13.413 28.5339 13.5469 27.7984 13.5469H25.5086V12.5312H27.7615C28.2693 12.5312 28.6771 12.4435 28.9848 12.2681C29.2926 12.0927 29.5157 11.8557 29.6542 11.5572C29.7958 11.2556 29.8666 10.9155 29.8666 10.5369C29.8666 10.1584 29.7958 9.81984 29.6542 9.52131C29.5157 9.22277 29.291 8.98887 28.9802 8.8196C28.6694 8.64725 28.257 8.56108 27.743 8.56108H25.7302V17H24.5853Z" fill="#14A647"/>
<path d="M10 27H40M15 37H35M21 47H29" stroke="#0E83D3" stroke-width="3" stroke-linecap="round" stroke-linejoin="round"/>
</g>
<defs>
<clipPath id="clip0_160_871">
<rect width="50" height="50" fill="white"/>
</clipPath>
</defs>
</svg>
