<svg width="50" height="50" viewBox="0 0 50 50" fill="none" xmlns="http://www.w3.org/2000/svg">
<path d="M25.7103 40.8326H23.2782C22.7311 40.8324 22.2064 40.6152 21.8191 40.2288C21.4319 39.8423 21.2137 39.318 21.2124 38.7709V36.1004C20.4727 35.8701 19.7588 35.5637 19.0822 35.1863L17.3852 36.8726C16.5924 37.6506 15.2493 37.6432 14.468 36.8635L12.7487 35.1335C12.3637 34.7453 12.1486 34.2202 12.1506 33.6735C12.1526 33.1268 12.3716 32.6033 12.7594 32.218L14.5538 30.436C14.2908 29.903 14.0693 29.3505 13.8913 28.7835H11.2249C10.6776 28.7813 10.1534 28.5625 9.76689 28.1749C9.3804 27.7874 9.16308 27.2625 9.16243 26.7152V24.2823C9.16286 23.7353 9.38025 23.2107 9.7669 22.8238C10.1536 22.4368 10.6779 22.219 11.2249 22.2181H13.8955C14.1255 21.4796 14.4319 20.7671 14.8096 20.0921L12.8213 18.0841C12.6301 17.8913 12.4789 17.6628 12.3763 17.4115C12.2736 17.1602 12.2216 16.8911 12.2232 16.6197C12.2241 16.3489 12.2787 16.0809 12.3839 15.8314C12.4891 15.5819 12.6429 15.3557 12.8362 15.166L14.5612 13.4492C15.3516 12.6737 16.7038 12.682 17.4793 13.4591L19.5616 15.5604C20.0896 15.2964 20.6448 15.0736 21.219 14.8979V12.2299C21.219 11.0922 22.1446 10.1674 23.2815 10.1674H25.7169C26.2635 10.1682 26.7876 10.3858 27.174 10.7725C27.5605 11.1591 27.7779 11.6832 27.7786 12.2299V14.9012C28.3743 15.086 28.9533 15.3208 29.5094 15.6033L31.6115 13.521C32.4043 12.7422 33.7507 12.7537 34.5287 13.5309L36.2447 15.2601C36.63 15.6454 36.8428 16.1643 36.8428 16.7203C36.8428 16.9915 36.7889 17.2599 36.6842 17.51C36.5796 17.7601 36.4262 17.9869 36.2332 18.1773L34.2325 20.1655C34.5914 20.8206 34.8835 21.5103 35.1029 22.2231H37.7759C38.3226 22.224 38.8466 22.4416 39.2331 22.8282C39.6195 23.2148 39.8369 23.7389 39.8376 24.2856V26.7144C39.8374 27.2614 39.6202 27.786 39.2337 28.1731C38.8472 28.5603 38.3229 28.7783 37.7759 28.7794H35.1029C34.9192 29.3762 34.6837 29.9559 34.3992 30.5119L36.1804 32.3054C36.5648 32.6857 36.7777 33.2055 36.7777 33.7657C36.7777 34.3151 36.5607 34.8316 36.168 35.221L34.4429 36.9386C33.6501 37.7166 32.2954 37.7017 31.5265 36.9271L29.8427 35.23C29.1852 35.5914 28.498 35.8843 27.7909 36.1029V38.7751C27.7817 39.3219 27.5588 39.8433 27.1699 40.2278C26.7811 40.6124 26.2571 40.8295 25.7103 40.8326Z" fill="#B9CBDE"/>
<path d="M25.7103 40.8326H23.2782C22.7311 40.8324 22.2064 40.6152 21.8191 40.2288C21.4319 39.8423 21.2137 39.318 21.2124 38.7709V36.1004C20.4727 35.8701 19.7588 35.5637 19.0822 35.1863L17.3852 36.8726C16.5924 37.6506 15.2493 37.6432 14.468 36.8635L12.7487 35.1335C12.3637 34.7453 12.1486 34.2202 12.1506 33.6735C12.1526 33.1268 12.3716 32.6033 12.7594 32.218L14.5538 30.436C14.2908 29.903 14.0693 29.3505 13.8913 28.7835H11.2249C10.6776 28.7813 10.1534 28.5625 9.76689 28.1749C9.3804 27.7874 9.16308 27.2625 9.16243 26.7152V24.2823C9.16286 23.7353 9.38025 23.2107 9.7669 22.8238C10.1536 22.4368 10.6779 22.219 11.2249 22.2181H13.8955C14.1255 21.4796 14.4319 20.7671 14.8096 20.0921L12.8213 18.0841C12.6301 17.8913 12.4789 17.6628 12.3763 17.4115C12.2736 17.1602 12.2216 16.8911 12.2232 16.6197C12.2241 16.3489 12.2787 16.0809 12.3839 15.8314C12.4891 15.5819 12.6429 15.3557 12.8362 15.166L14.5612 13.4492C15.3516 12.6737 16.7038 12.682 17.4793 13.4591L19.5616 15.5604C20.0896 15.2964 20.6448 15.0736 21.219 14.8979V12.2299C21.219 11.0922 22.1446 10.1674 23.2815 10.1674H25.7169C26.2635 10.1682 26.7876 10.3858 27.174 10.7725C27.5605 11.1591 27.7779 11.6832 27.7786 12.2299V14.9012C28.3743 15.086 28.9533 15.3208 29.5094 15.6033L31.6115 13.521C32.4043 12.7422 33.7507 12.7537 34.5287 13.5309L36.2447 15.2601C36.63 15.6454 36.8428 16.1643 36.8428 16.7203C36.8428 16.9915 36.7889 17.2599 36.6842 17.51C36.5796 17.7601 36.4262 17.9869 36.2332 18.1773L34.2325 20.1655C34.5914 20.8206 34.8835 21.5103 35.1029 22.2231H37.7759C38.3226 22.224 38.8466 22.4416 39.2331 22.8282C39.6195 23.2148 39.8369 23.7389 39.8376 24.2856V26.7144C39.8374 27.2614 39.6202 27.786 39.2337 28.1731C38.8472 28.5603 38.3229 28.7783 37.7759 28.7794H35.1029C34.9192 29.3762 34.6837 29.9559 34.3992 30.5119L36.1804 32.3054C36.5648 32.6857 36.7777 33.2055 36.7777 33.7657C36.7777 34.3151 36.5607 34.8316 36.168 35.221L34.4429 36.9386C33.6501 37.7166 32.2954 37.7017 31.5265 36.9271L29.8427 35.23C29.1852 35.5914 28.498 35.8843 27.7909 36.1029V38.7751C27.7817 39.3219 27.5588 39.8433 27.1699 40.2278C26.7811 40.6124 26.2571 40.8295 25.7103 40.8326ZM18.9577 34.2046L19.2192 34.3588C19.9994 34.8225 20.8371 35.1819 21.7107 35.428L21.997 35.5081V38.7693C21.997 39.4738 22.572 40.0472 23.2782 40.0472H25.7103C26.0502 40.0453 26.3759 39.9108 26.618 39.6722C26.8601 39.4336 26.9995 39.1099 27.0064 38.7701V35.513L27.2926 35.433C28.1399 35.1958 28.9528 34.8494 29.7107 34.4026L29.9722 34.2483L32.0818 36.3735C32.5578 36.8536 33.3985 36.8619 33.891 36.3793L35.6144 34.6624C35.8578 34.4215 35.9923 34.1023 35.9923 33.764C35.9923 33.415 35.8619 33.0941 35.6251 32.8598L33.4331 30.6513L33.5725 30.3955C33.9438 29.7124 34.2317 29.0005 34.4297 28.2811L34.5097 27.9931H37.7759C38.4805 27.9931 39.0538 27.4189 39.0538 26.7127V24.2839C39.0538 23.5794 38.4805 23.0052 37.7759 23.0052H34.5106L34.4305 22.7181C34.1945 21.8693 33.8498 21.0547 33.4051 20.2942L33.2516 20.0319L35.6796 17.6188C35.9238 17.3762 36.0583 17.0561 36.0583 16.7179C36.0583 16.3714 35.9271 16.0496 35.6887 15.812L33.9727 14.0828C33.7299 13.8478 33.4056 13.716 33.0678 13.7151C32.73 13.7142 32.4049 13.8442 32.161 14.0779L29.6505 16.5652L29.3947 16.4275C28.7241 16.0638 28.0148 15.7763 27.2803 15.5703L26.9932 15.4903V12.2299C26.9932 11.5253 26.4198 10.9511 25.7152 10.9511H23.2798C22.5753 10.9511 22.0019 11.5245 22.0019 12.2299V15.4894L21.7148 15.5695C20.9971 15.7683 20.3098 16.0438 19.6705 16.387L19.4122 16.5256L16.9216 14.0127C16.4422 13.5342 15.5999 13.5268 15.1107 14.0077L13.3873 15.7229C13.2671 15.8402 13.1716 15.9803 13.1063 16.135C13.041 16.2897 13.0072 16.4559 13.0069 16.6238C13.0055 16.7923 13.0376 16.9593 13.1013 17.1153C13.1651 17.2712 13.2592 17.4129 13.3782 17.5321L15.7897 19.9684L15.6354 20.2282C15.172 21.0075 14.8125 21.844 14.5662 22.7164L14.4862 23.0027H11.2249C10.5204 23.0027 9.947 23.5769 9.947 24.2823V26.7152C9.947 27.4206 10.5204 27.9964 11.2266 27.9989H14.4845L14.5645 28.286C14.7559 28.9757 15.0307 29.6621 15.3829 30.3279L15.5191 30.5845L13.313 32.7732C13.073 33.0119 12.9374 33.3361 12.936 33.6746C12.9346 34.0131 13.0675 34.3384 13.3056 34.5791L15.0241 36.3083C15.5092 36.7909 16.3432 36.7959 16.8349 36.3133L18.9577 34.2046Z" fill="#0086E6"/>
<g clip-path="url(#clip0_160_835)">
<path d="M21.25 20.75H28.75C29.581 20.75 30.25 21.419 30.25 22.25V29.75C30.25 30.581 29.581 31.25 28.75 31.25H21.25C20.419 31.25 19.75 30.581 19.75 29.75V22.25C19.75 21.419 20.419 20.75 21.25 20.75Z" stroke="#0086E6" stroke-width="0.75" stroke-linecap="round" stroke-linejoin="round"/>
<path d="M22 23H22.75" stroke="#0086E6" stroke-width="0.75" stroke-linecap="round" stroke-linejoin="round"/>
<path d="M24.25 23L28 23" stroke="#0086E6" stroke-width="0.75" stroke-linecap="round" stroke-linejoin="round"/>
<path d="M23.5 23.75C23.3011 23.75 23.1103 23.671 22.9697 23.5303C22.829 23.3897 22.75 23.1989 22.75 23C22.75 22.8011 22.829 22.6103 22.9697 22.4697C23.1103 22.329 23.3011 22.25 23.5 22.25C23.5985 22.25 23.696 22.2694 23.787 22.3071C23.878 22.3448 23.9607 22.4 24.0303 22.4697C24.1 22.5393 24.1552 22.622 24.1929 22.713C24.2306 22.804 24.25 22.9015 24.25 23C24.25 23.0985 24.2306 23.196 24.1929 23.287C24.1552 23.378 24.1 23.4607 24.0303 23.5303C23.9607 23.6 23.878 23.6552 23.787 23.6929C23.696 23.7306 23.5985 23.75 23.5 23.75Z" stroke="#EDAD63" stroke-width="0.75" stroke-linecap="round" stroke-linejoin="round"/>
<path d="M28 26H27.25" stroke="#0086E6" stroke-width="0.75" stroke-linecap="round" stroke-linejoin="round"/>
<path d="M25.75 26L22 26" stroke="#0086E6" stroke-width="0.75" stroke-linecap="round" stroke-linejoin="round"/>
<path d="M26.5 26.75C26.6989 26.75 26.8897 26.671 27.0303 26.5303C27.171 26.3897 27.25 26.1989 27.25 26C27.25 25.8011 27.171 25.6103 27.0303 25.4697C26.8897 25.329 26.6989 25.25 26.5 25.25C26.3011 25.25 26.1103 25.329 25.9697 25.4697C25.829 25.6103 25.75 25.8011 25.75 26C25.75 26.1989 25.829 26.3897 25.9697 26.5303C26.1103 26.671 26.3011 26.75 26.5 26.75Z" stroke="#EDAD63" stroke-width="0.75" stroke-linecap="round" stroke-linejoin="round"/>
<path d="M22 29H22.75" stroke="#0086E6" stroke-width="0.75" stroke-linecap="round" stroke-linejoin="round"/>
<path d="M24.25 29L28 29" stroke="#0086E6" stroke-width="0.75" stroke-linecap="round" stroke-linejoin="round"/>
<path d="M23.5 29.75C23.3011 29.75 23.1103 29.671 22.9697 29.5303C22.829 29.3897 22.75 29.1989 22.75 29C22.75 28.8011 22.829 28.6103 22.9697 28.4697C23.1103 28.329 23.3011 28.25 23.5 28.25C23.5985 28.25 23.696 28.2694 23.787 28.3071C23.878 28.3448 23.9607 28.4 24.0303 28.4697C24.1 28.5393 24.1552 28.622 24.1929 28.713C24.2306 28.804 24.25 28.9015 24.25 29C24.25 29.0985 24.2306 29.196 24.1929 29.287C24.1552 29.378 24.1 29.4607 24.0303 29.5303C23.9607 29.6 23.878 29.6552 23.787 29.6929C23.696 29.7306 23.5985 29.75 23.5 29.75Z" stroke="#EDAD63" stroke-width="0.75" stroke-linecap="round" stroke-linejoin="round"/>
</g>
<defs>
<clipPath id="clip0_160_835">
<rect width="12" height="12" fill="white" transform="translate(19 20)"/>
</clipPath>
</defs>
</svg>
