<svg width="50" height="50" viewBox="0 0 50 50" fill="none" xmlns="http://www.w3.org/2000/svg">
<path d="M9 30C9 29.4477 9.44772 29 10 29H24C24.5523 29 25 29.4477 25 30V39H9V30Z" fill="#B5C6D9"/>
<path d="M24 10C24 9.44772 24.4477 9 25 9H39C39.5523 9 40 9.44772 40 10V19H24V10Z" fill="#B5C6D9"/>
<path d="M8 39H26V41C26 41.5523 25.5523 42 25 42H9C8.44772 42 8 41.5523 8 41V39Z" fill="#0173C2"/>
<path d="M23 19H41V21C41 21.5523 40.5523 22 40 22H24C23.4477 22 23 21.5523 23 21V19Z" fill="#0173C2"/>
<path d="M17.5 26.5V15.5H20" stroke="#0C82D2" stroke-linecap="round" stroke-linejoin="round"/>
<path d="M27.5 35.5H31.5V24" stroke="#0C82D2" stroke-linecap="round" stroke-linejoin="round"/>
<path d="M19 26.5C19 27.3284 18.3284 28 17.5 28C16.6716 28 16 27.3284 16 26.5C16 25.6716 16.6716 25 17.5 25C18.3284 25 19 25.6716 19 26.5Z" fill="#EDAD63"/>
<circle cx="20.5" cy="15.5" r="1.5" fill="#EDAD63"/>
<circle cx="28.5" cy="35.5" r="1.5" fill="#EDAD63"/>
<circle cx="31.5" cy="24.5" r="1.5" transform="rotate(-0.433722 31.5 24.5)" fill="#EDAD63"/>
</svg>
