<svg width="50" height="50" viewBox="0 0 50 50" fill="none" xmlns="http://www.w3.org/2000/svg">
<path d="M24.5 32.7416C29.0517 32.7416 32.7417 29.0517 32.7417 24.5C32.7417 19.9482 29.0517 16.2583 24.5 16.2583C19.9483 16.2583 16.2583 19.9482 16.2583 24.5C16.2583 29.0517 19.9483 32.7416 24.5 32.7416Z" fill="#B9CBDE" stroke="#0C82D2" stroke-width="0.6"/>
<path d="M28.8125 24.4999H24.7396C24.676 24.4999 24.6151 24.4747 24.5702 24.4297C24.5252 24.3848 24.5 24.3239 24.5 24.2603V21.1458" stroke="#0C82D2" stroke-width="0.6" stroke-linecap="round"/>
<path d="M5 25H14L9.5 18.5L5 25Z" fill="#0073C2"/>
<path d="M34.4434 36.9119C26.1678 42.5182 10.2096 41.2588 9.56616 23.2079" stroke="#0073C2" stroke-width="3" stroke-linecap="square"/>
<path d="M44 24H35L39.5 30.5L44 24Z" fill="#14A647"/>
<path d="M14 12.993C22 7.00001 38 7.49999 39.5 25.5" stroke="#14A647" stroke-width="3" stroke-linecap="square"/>
</svg>
