<svg width="50" height="50" viewBox="0 0 50 50" fill="none" xmlns="http://www.w3.org/2000/svg">
<g clip-path="url(#clip0_160_862)">
<path d="M25.5 41.7813C33.9778 38.8591 40.0209 32.066 40.9688 23.4166C41.2317 19.6619 41.2094 15.8926 40.9022 12.1413C40.8618 11.5499 40.6023 10.9949 40.1744 10.5847C39.7465 10.1744 39.181 9.93857 38.5884 9.92315C34.7531 9.80503 30.2953 9.16565 26.8509 5.77284C26.4912 5.41759 26.006 5.21838 25.5005 5.21838C24.9949 5.21838 24.5097 5.41759 24.15 5.77284C20.7047 9.16565 16.2469 9.80503 12.4125 9.92315C11.8199 9.93857 11.2544 10.1744 10.8266 10.5847C10.3987 10.9949 10.1392 11.5499 10.0987 12.1413C9.79121 15.8926 9.76865 19.6619 10.0312 23.4166C10.9791 32.066 17.0222 38.8591 25.5 41.7813Z" stroke="#0086E6" stroke-linecap="round" stroke-linejoin="round"/>
<path d="M22.5455 29.1159C22.2303 29.1159 20.8939 30.6058 20.5 31L19.3939 35.4232L25.303 37L31.2121 36.2116L31.6061 31.5L30.4242 29.9043L29.2424 29.1159C29.2424 28.7217 28.8485 27.9333 29.2424 27.5391C29.521 27.2604 31.2121 25.5681 31.6061 22.8087L32.5 21.5V20L32 19.655L31.2121 19.2608C31.2121 16.7379 30.6869 15.5816 30.4242 15.3188C24.9091 12.5594 21.7576 14.9246 20.9697 15.3188C20.3394 15.6342 20.1818 17.9468 20.1818 19.2608L19.3939 19.4579H19V21.2319C19 21.3633 19.1711 21.7973 19.3939 22.0203C19.7879 22.4145 19.7879 22.6773 20.1818 22.8087C20.1818 24.7009 21.7576 26.7507 22.5455 27.5391C22.6768 28.0647 22.9394 29.1159 22.5455 29.1159Z" fill="#EDAD63"/>
<path d="M14.5 34.5L16 36L20.5 39.5L25.5 41.5L30 39.5L34.5 37C34.5 36.4831 36.5 35.4303 36.5 34.5C36.5 33.337 31.5 30 31 31.0001C30.51 31.9801 28.1129 35.9383 26 36C24.042 36.0572 21.4032 32.9384 20.5 31.0001C17.4032 30.69 15.6613 32.9493 14.5 34.5Z" fill="#0E83D3"/>
<path d="M18 15.6786C18 17.25 18.7299 19.2143 19 20H20.5C20.5 18.8214 20.2685 16.6214 21.2407 15.6786C22.456 14.5 29.3425 14.5 30.1526 15.6786C30.8008 16.6214 30.9628 18.8214 30.9628 20H32.5L32.9883 15.6786C33.1233 13.9762 32.1781 9 25.6967 9C18 9 18 13.7013 18 15.6704V15.6786Z" fill="#4A4B4D"/>
<g clip-path="url(#clip1_160_862)">
<circle cx="36" cy="40" r="5.5" fill="#E5EEF6" stroke="#14A647"/>
<path d="M38.55 38.6125C38.664 38.497 38.664 38.3095 38.55 38.1925C38.436 38.0755 38.2515 38.077 38.1375 38.1925L35.2313 41.14L33.8813 39.7713C33.8544 39.7438 33.8223 39.722 33.7869 39.7072C33.7514 39.6923 33.7134 39.6846 33.675 39.6846C33.6366 39.6846 33.5986 39.6923 33.5631 39.7072C33.5277 39.722 33.4956 39.7438 33.4688 39.7713C33.4138 39.8274 33.383 39.9028 33.383 39.9813C33.383 40.0598 33.4138 40.1352 33.4688 40.1913L35.025 41.77C35.0519 41.7975 35.084 41.8193 35.1194 41.8342C35.1548 41.849 35.1928 41.8567 35.2313 41.8567C35.2697 41.8567 35.3077 41.849 35.3431 41.8342C35.3785 41.8193 35.4106 41.7975 35.4375 41.77L38.55 38.6125Z" fill="#14A647"/>
</g>
</g>
<defs>
<clipPath id="clip0_160_862">
<rect width="50" height="50" fill="white"/>
</clipPath>
<clipPath id="clip1_160_862">
<rect width="12" height="12" fill="white" transform="translate(30 34)"/>
</clipPath>
</defs>
</svg>
