<svg width="50" height="50" viewBox="0 0 50 50" fill="none" xmlns="http://www.w3.org/2000/svg">
<path d="M21 34C20.6 34 19.5 35 19 35.5L17 42L24.5 44L32 43V36.5L31 35L29.5 34C29.5 33.5 29 32.5 29.5 32C29.8536 31.6465 32 29.5 32.5 26V25L33 24V22L32 21.5C32 18.3 31.3333 16.8333 31 16.5C24 13 20 16 19 16.5C18.2 16.9 18 19.8333 18 21.5L17 21.75L16.5 22V24C16.5 24.1667 16.7172 24.7172 17 25C17.5 25.5 17.5 25.8334 18 26C18 28.4 20 31 21 32C21.1667 32.6667 21.5 34 21 34Z" fill="#EDAD63"/>
<path d="M9.5 41.5V45H40V41.5C40 40 33 35.5 32 36.5C31 37.5 28.5 41.5 25.5 42.5C23.1 43.3 20.1667 38.5 19 36C15 35.6 11 39.5 9.5 41.5Z" fill="#0E83D3"/>
<path d="M15.5 16.5C15.5 18.5 16.1667 21 16.5 22L18 22C18 20.5 18.3 17.7 19.5 16.5C21 15 29.5 15 30.5 16.5C31.3 17.7 31.5 20.5 31.5 22L33 22L34 16.5C34.1667 14.3333 33 8 25 8C15.4999 8 15.5 13.9835 15.5 16.4897V16.5Z" fill="#4A4B4D"/>
</svg>
